<?xml version="1.0" standalone="no"?>
<!DOCTYPE svg PUBLIC "-//W3C//DTD SVG 20010904//EN"
 "http://www.w3.org/TR/2001/REC-SVG-20010904/DTD/svg10.dtd">
<svg version="1.0" xmlns="http://www.w3.org/2000/svg"
 width="1024.000000pt" height="1024.000000pt" viewBox="0 0 1024.000000 1024.000000"
 preserveAspectRatio="xMidYMid meet">

<g transform="translate(0.000000,1024.000000) scale(0.100000,-0.100000)"
fill="#000000" stroke="none">
<path d="M3040 8667 c-202 -69 -376 -247 -512 -527 -180 -368 -330 -934 -412
-1555 -12 -92 -19 -112 -84 -240 -130 -259 -255 -606 -332 -919 -211 -859
-176 -1579 105 -2183 52 -110 172 -311 226 -378 170 -208 313 -352 464 -465
33 -25 62 -47 65 -50 9 -9 172 -115 251 -162 270 -163 671 -323 1049 -418 47
-12 99 -25 115 -30 151 -46 739 -137 1070 -165 984 -84 1981 157 2620 635 140
105 158 121 283 243 404 397 635 901 706 1538 55 499 5 1085 -145 1683 -38
153 -38 223 1 435 47 256 71 509 77 831 4 228 2 309 -11 406 -19 146 -55 293
-90 365 -76 159 -243 238 -481 225 -273 -14 -584 -117 -1015 -337 l-175 -89
-115 59 c-401 206 -937 334 -1465 348 -286 8 -486 -7 -794 -58 -112 -19 -125
-20 -133 -6 -5 9 -59 78 -120 154 -235 288 -516 535 -704 618 -156 69 -320 85
-444 42z m300 -104 c203 -56 507 -320 825 -718 52 -65 101 -123 108 -127 7 -4
74 4 148 18 74 14 190 32 259 40 173 21 562 29 735 15 496 -41 953 -169 1294
-361 49 -28 96 -50 105 -50 9 0 74 31 144 70 276 151 664 306 889 356 100 22
269 29 334 14 141 -32 201 -108 249 -315 33 -139 42 -244 41 -471 0 -330 -27
-635 -86 -1002 -33 -204 -32 -252 9 -403 196 -713 217 -1528 55 -2084 -156
-535 -430 -932 -859 -1246 -278 -204 -691 -393 -1065 -488 -730 -185 -1448
-181 -2390 15 -527 110 -1029 304 -1380 535 -171 113 -265 189 -410 334 -395
395 -604 861 -655 1460 -54 637 137 1524 470 2185 57 113 58 118 74 255 62
514 171 959 326 1322 105 245 196 392 314 508 151 148 285 188 466 138z"/>
<path d="M3135 8456 c-46 -26 -75 -49 -75 -58 0 -5 -12 -20 -26 -33 -35 -33
-17 -32 19 0 16 14 26 29 23 34 -3 5 1 12 10 15 22 8 26 8 19 -3 -3 -5 0 -13
6 -17 7 -4 9 -3 5 4 -3 5 0 13 6 15 10 4 10 6 1 6 -7 1 -13 6 -13 11 0 6 16 8
41 4 39 -7 58 3 59 29 0 11 -52 7 -75 -7z m60 -6 c-3 -5 -18 -10 -33 -9 -24 0
-25 1 -7 9 28 12 47 12 40 0z"/>
<path d="M3270 8429 c-13 -9 -12 -10 2 -5 28 9 93 -18 93 -39 0 -10 7 -20 15
-22 13 -4 13 -3 0 6 -8 5 -11 13 -8 16 4 4 17 0 30 -9 27 -19 45 -21 26 -3
-14 13 -122 67 -135 67 -4 0 -15 -5 -23 -11z"/>
<path d="M3160 8410 c-13 -9 -13 -10 0 -9 8 1 26 5 40 9 l25 8 -25 1 c-14 0
-32 -4 -40 -9z"/>
<path d="M3248 8403 c7 -3 16 -2 19 1 4 3 -2 6 -13 5 -11 0 -14 -3 -6 -6z"/>
<path d="M3400 8350 c0 -5 5 -10 11 -10 5 0 7 5 4 10 -3 6 -8 10 -11 10 -2 0
-4 -4 -4 -10z"/>
<path d="M3443 8345 c-12 -13 -7 -25 9 -25 5 0 7 4 4 9 -4 5 -1 11 6 13 7 3 8
7 3 10 -6 3 -15 0 -22 -7z"/>
<path d="M3065 8340 c3 -5 11 -10 16 -10 6 0 7 5 4 10 -3 6 -11 10 -16 10 -6
0 -7 -4 -4 -10z"/>
<path d="M3035 8330 c-3 -5 -1 -10 4 -10 6 0 11 5 11 10 0 6 -2 10 -4 10 -3 0
-8 -4 -11 -10z"/>
<path d="M2988 8307 c-26 -38 -118 -207 -118 -214 0 -13 33 40 69 107 18 36
36 67 40 70 11 9 33 52 28 56 -2 3 -11 -6 -19 -19z"/>
<path d="M3496 8317 c42 -25 75 -57 69 -67 -3 -5 -2 -10 4 -10 5 0 12 4 16 9
6 11 -81 81 -99 81 -6 -1 -2 -6 10 -13z"/>
<path d="M3017 8303 c-4 -3 -7 -11 -7 -17 0 -6 5 -5 12 2 6 6 9 14 7 17 -3 3
-9 2 -12 -2z"/>
<path d="M3524 8261 c0 -11 5 -17 13 -14 10 4 11 9 2 19 -15 18 -15 18 -15 -5z"/>
<path d="M3629 8201 c13 -10 21 -23 18 -28 -3 -5 4 -9 16 -9 18 1 22 -5 22
-31 1 -34 10 -51 23 -38 4 4 1 10 -5 12 -15 6 -17 23 -3 23 6 0 16 -11 22 -25
6 -14 17 -25 24 -25 7 0 17 -8 23 -17 5 -10 12 -15 15 -12 8 8 -149 169 -165
169 -9 0 -5 -8 10 -19z"/>
<path d="M2937 8163 c-4 -3 -7 -11 -7 -17 0 -6 5 -5 12 2 6 6 9 14 7 17 -3 3
-9 2 -12 -2z"/>
<path d="M2951 8114 c0 -11 3 -14 6 -6 3 7 2 16 -1 19 -3 4 -6 -2 -5 -13z"/>
<path d="M2922 8100 c0 -14 2 -19 5 -12 2 6 2 18 0 25 -3 6 -5 1 -5 -13z"/>
<path d="M2861 8064 c0 -11 3 -14 6 -6 3 7 2 16 -1 19 -3 4 -6 -2 -5 -13z"/>
<path d="M3810 8015 c0 -3 10 -19 21 -35 12 -16 19 -35 16 -42 -2 -8 4 -29 15
-48 18 -33 19 -28 3 13 -4 9 -3 17 3 17 6 0 14 -10 18 -22 3 -12 15 -31 25
-42 12 -12 17 -28 14 -40 -5 -19 -5 -19 5 -4 9 15 1 33 -42 100 -51 80 -78
116 -78 103z"/>
<path d="M2830 8008 c-1 -5 -3 -11 -5 -15 -2 -10 -24 -62 -31 -77 -3 -6 2 -2
10 8 9 11 16 25 16 32 0 7 5 14 11 16 6 2 9 13 6 23 -2 11 -6 17 -7 13z"/>
<path d="M2851 7994 c0 -11 3 -14 6 -6 3 7 2 16 -1 19 -3 4 -6 -2 -5 -13z"/>
<path d="M2859 7954 c-5 -15 -8 -29 -5 -31 2 -2 8 10 14 26 13 38 5 41 -9 5z"/>
<path d="M2781 7874 c0 -11 3 -14 6 -6 3 7 2 16 -1 19 -3 4 -6 -2 -5 -13z"/>
<path d="M3840 7875 c0 -5 5 -17 10 -25 5 -8 10 -10 10 -5 0 6 -5 17 -10 25
-5 8 -10 11 -10 5z"/>
<path d="M2771 7839 c-1 -9 -8 -30 -16 -45 -17 -33 -20 -58 -5 -49 12 8 33 83
26 98 -2 7 -5 5 -5 -4z"/>
<path d="M3940 7784 c0 -14 4 -23 9 -20 5 3 7 15 4 26 -7 28 -13 25 -13 -6z"/>
<path d="M3964 7723 c6 -60 -4 -128 -16 -111 -7 10 -8 10 -6 -2 5 -33 -85
-155 -95 -129 -3 9 -6 10 -6 2 -2 -21 16 -23 35 -3 81 82 116 173 94 250 l-10
35 4 -42z"/>
<path d="M2721 7686 c-6 -27 -10 -51 -7 -53 3 -3 8 12 12 32 5 26 9 33 15 23
11 -16 10 0 0 26 -6 16 -10 10 -20 -28z"/>
<path d="M2761 7720 c0 -8 4 -22 9 -30 12 -18 12 -2 0 25 -6 13 -9 15 -9 5z"/>
<path d="M3941 7694 c0 -11 3 -14 6 -6 3 7 2 16 -1 19 -3 4 -6 -2 -5 -13z"/>
<path d="M7940 7688 c-250 -52 -583 -218 -746 -371 -83 -77 -118 -135 -118
-196 1 -91 94 -231 282 -421 322 -325 640 -499 769 -420 76 46 144 203 179
415 25 151 26 535 1 678 -31 180 -74 275 -138 307 -42 22 -147 26 -229 8z"/>
<path d="M2701 7605 c-1 -11 -4 -31 -6 -45 l-6 -25 11 25 c6 13 9 33 7 45 -4
19 -4 19 -6 0z"/>
<path d="M2711 7534 c0 -11 3 -14 6 -6 3 7 2 16 -1 19 -3 4 -6 -2 -5 -13z"/>
<path d="M2675 7465 c-3 -31 -5 -59 -2 -61 3 -3 8 20 12 51 3 31 5 59 2 61 -3
3 -8 -20 -12 -51z"/>
<path d="M3850 7509 c0 -5 5 -7 10 -4 6 3 10 8 10 11 0 2 -4 4 -10 4 -5 0 -10
-5 -10 -11z"/>
<path d="M3770 7425 c-8 -10 -9 -15 -1 -15 6 0 11 5 11 10 0 13 27 13 33 0 3
-6 4 -5 3 2 -4 19 -31 21 -46 3z"/>
<path d="M3759 7381 c-19 -16 -42 -29 -50 -29 -31 2 -49 -3 -49 -13 0 -5 4 -8
9 -4 5 3 12 1 16 -5 10 -16 17 -12 70 35 56 50 59 61 4 16z m-49 -41 c0 -5 -4
-10 -10 -10 -5 0 -10 5 -10 10 0 6 5 10 10 10 6 0 10 -4 10 -10z"/>
<path d="M2663 7300 c0 -47 2 -66 4 -42 2 23 2 61 0 85 -2 23 -4 4 -4 -43z"/>
<path d="M3645 7310 c-3 -5 -2 -10 4 -10 5 0 13 5 16 10 3 6 2 10 -4 10 -5 0
-13 -4 -16 -10z"/>
<path d="M3607 7274 c-16 -8 -38 -12 -50 -9 -17 5 -19 4 -7 -4 13 -10 13 -12
0 -21 -20 -13 -30 -12 -26 3 1 6 1 9 -1 5 -3 -5 -13 -8 -24 -8 -10 0 -19 -5
-19 -11 0 -6 9 -8 20 -4 11 3 20 2 20 -4 0 -8 100 46 118 64 9 9 -2 5 -31 -11z"/>
<path d="M3465 7270 c-3 -5 -1 -10 4 -10 6 0 11 5 11 10 0 6 -2 10 -4 10 -3 0
-8 -4 -11 -10z"/>
<path d="M3420 7194 c-25 -15 -25 -15 -1 -8 15 4 21 2 17 -5 -5 -7 2 -7 24 0
37 13 40 22 4 13 -19 -5 -25 -4 -20 5 9 14 7 14 -24 -5z"/>
<path d="M3310 7196 c0 -2 13 -6 29 -8 17 -2 28 -1 25 4 -5 8 -54 12 -54 4z"/>
<path d="M2672 7180 c0 -8 4 -26 8 -40 6 -20 8 -21 8 -5 0 11 -3 29 -8 40 -5
12 -8 14 -8 5z"/>
<path d="M2704 7146 c-8 -32 3 -66 31 -93 31 -32 68 -43 133 -42 56 2 56 2
-17 9 -59 5 -78 11 -92 28 -9 12 -22 22 -28 22 -6 0 -11 7 -11 15 0 8 5 15 11
15 5 0 7 5 3 11 -4 8 -9 7 -16 -2 -7 -10 -8 -2 -4 24 5 42 0 50 -10 13z"/>
<path d="M3398 7165 c-3 -3 -15 -8 -28 -10 -12 -2 -33 -11 -46 -20 -13 -8 -26
-15 -29 -15 -9 0 -5 28 5 33 6 3 5 4 -2 3 -7 -1 -14 -11 -16 -22 -2 -14 -22
-25 -79 -44 -41 -14 -86 -23 -98 -22 -13 2 -25 -3 -28 -12 -4 -10 -1 -16 8
-16 8 0 15 5 15 11 0 6 7 9 15 6 16 -7 238 69 243 83 2 5 9 7 15 4 7 -2 21 2
32 10 11 9 15 16 9 16 -6 0 -13 -2 -16 -5z"/>
<path d="M3125 7111 c-17 -7 -16 -9 9 -15 16 -4 31 -5 34 -1 3 3 -3 5 -14 6
-18 0 -18 1 1 9 25 11 -2 12 -30 1z"/>
<path d="M3190 7110 c-8 -5 -10 -10 -5 -10 6 0 17 5 25 10 8 5 11 10 5 10 -5
0 -17 -5 -25 -10z"/>
<path d="M2770 7085 c0 -5 5 -17 10 -25 5 -8 10 -10 10 -5 0 6 -5 17 -10 25
-5 8 -10 11 -10 5z"/>
<path d="M2970 7030 l-25 -8 25 0 c14 0 34 3 45 8 l20 9 -20 -1 c-11 0 -31 -4
-45 -8z"/>
<path d="M3575 5995 c-95 -17 -185 -49 -280 -98 -143 -74 -305 -223 -305 -280
0 -28 32 -57 62 -57 9 0 55 37 101 83 158 156 378 247 597 247 233 -1 489
-143 653 -365 32 -44 66 -84 73 -88 31 -18 84 18 84 56 0 30 -115 181 -192
252 -132 122 -310 217 -470 249 -91 19 -225 19 -323 1z"/>
<path d="M6620 5693 c-194 -33 -389 -141 -561 -313 -92 -93 -124 -139 -114
-169 8 -25 58 -46 80 -34 9 6 65 57 123 115 118 115 197 173 307 224 92 43
181 64 269 64 221 0 452 -154 629 -423 57 -85 81 -100 122 -73 40 27 32 60
-39 166 -192 284 -461 453 -716 448 -41 0 -86 -3 -100 -5z"/>
<path d="M2046 5169 c-14 -11 -26 -30 -26 -41 0 -32 112 -140 194 -187 130
-74 269 -113 469 -132 94 -9 112 -8 133 6 27 18 33 65 10 87 -9 9 -58 19 -133
26 -228 22 -399 88 -526 201 -37 34 -74 61 -81 61 -7 0 -25 -9 -40 -21z"/>
<path d="M5175 5051 c-59 -27 -111 -89 -124 -149 -21 -101 19 -190 113 -247
14 -9 10 -21 -36 -99 -29 -49 -78 -115 -108 -147 -46 -47 -63 -59 -105 -67
-34 -7 -65 -8 -95 -1 -42 10 -100 38 -100 49 0 13 -60 70 -75 70 -23 0 -65
-45 -65 -70 0 -32 77 -107 144 -140 73 -36 181 -50 239 -31 57 19 148 93 196
160 l45 61 11 -34 c19 -53 63 -124 104 -165 105 -105 292 -126 409 -47 57 38
73 73 48 110 -22 35 -55 33 -112 -6 -39 -28 -54 -33 -103 -32 -69 1 -109 21
-170 83 -55 55 -80 118 -88 217 l-6 71 34 7 c67 12 136 90 154 174 17 82 -45
195 -129 233 -52 24 -130 24 -181 0z"/>
<path d="M1922 4634 c-22 -15 -30 -57 -14 -80 28 -41 243 -121 402 -149 56
-10 177 -19 295 -22 180 -5 203 -4 218 11 9 10 17 30 17 46 0 54 -11 57 -232
63 -273 7 -413 35 -571 113 -78 39 -84 40 -115 18z"/>
<path d="M8287 4466 c-96 -69 -226 -108 -412 -126 -64 -6 -151 -7 -194 -4 -85
7 -111 -5 -111 -49 0 -51 23 -64 122 -71 188 -14 418 24 563 94 105 51 155 93
155 130 0 31 -13 46 -50 54 -19 5 -37 -2 -73 -28z"/>
<path d="M2845 4075 c-19 -8 -446 -35 -548 -35 -68 0 -119 5 -150 16 -63 21
-99 16 -115 -19 -19 -40 3 -70 70 -94 44 -15 82 -18 233 -17 195 1 478 19 536
35 21 5 40 16 43 25 8 21 7 56 -2 71 -8 13 -51 24 -67 18z"/>
<path d="M8190 3970 c-133 -23 -413 -41 -508 -33 -61 5 -75 3 -92 -12 -26 -23
-26 -67 0 -90 17 -16 40 -18 187 -17 93 0 215 5 273 12 142 15 331 48 347 62
19 15 16 62 -5 81 -23 21 -64 20 -202 -3z"/>
<path d="M7508 3553 c-19 -21 -23 -59 -9 -81 4 -7 43 -19 87 -27 163 -29 642
-10 665 26 15 24 10 58 -12 80 -19 19 -29 21 -78 15 -222 -27 -376 -27 -586 0
-42 5 -53 3 -67 -13z"/>
</g>
</svg>
